<?xml version='1.0' encoding='utf-8'?>
<svg width="10.29mm" height="10.29mm" viewBox="-51.45 -51.45 102.9 102.9" version="1.1" xmlns="http://www.w3.org/2000/svg">
  <g transform="scale(1,-1)" stroke-linecap="round">
    <g fill="none" stroke="rgb(0,0,0)" stroke-width="0.8999999999999999">
      <path d="M -51.0,-51.0 L -51.0,-51.0 L -51.0,51.0 L -51.0,51.0 L -51.0,-51.0" />
      <path d="M 51.0,-51.0 L 51.0,-51.0 L 51.0,51.0 L 51.0,51.0 L 51.0,-51.0" />
      <path d="M -51.0,-51.0 L 51.0,-51.0 L 51.0,-51.0 L -51.0,-51.0 L -51.0,-51.0" />
      <path d="M 51.0,51.0 L -51.0,51.0 L -51.0,51.0 L 51.0,51.0 L 51.0,51.0" />
      <path d="M -51.0,-51.0 L -51.0,51.0 L 51.0,51.0 L 51.0,-51.0 L -51.0,-51.0" />
      <path d="M -51.0,51.0 L -51.0,-51.0 L 51.0,-51.0 L 51.0,51.0 L -51.0,51.0" />
    </g>
  </g>
</svg>